<svg width="20" height="20" viewBox="0 0 20 20" fill="none" xmlns="http://www.w3.org/2000/svg">
<path fill-rule="evenodd" clip-rule="evenodd" d="M12.5175 2.78605C12.9417 2.71355 13.4158 2.68938 13.8625 2.76522C14.6581 2.89961 15.3953 3.26907 15.9792 3.82605C16.3592 3.83438 16.7333 3.75938 17.0642 3.65272C17.3839 3.54844 17.6908 3.40839 17.9792 3.23522L17.9867 3.23022C18.1067 3.15026 18.2506 3.11426 18.3941 3.12832C18.5376 3.14237 18.6719 3.20562 18.7741 3.30734C18.8763 3.40906 18.9402 3.54299 18.9549 3.68643C18.9697 3.82987 18.9344 3.974 18.855 4.09438C18.6825 4.35688 18.4417 4.82522 18.1725 5.35022L18.0433 5.60105C17.8892 5.90105 17.7308 6.20438 17.5833 6.46438C17.4908 6.62772 17.3917 6.79355 17.2917 6.93688V7.16522C17.3019 8.53075 17.0401 9.88465 16.5214 11.1479C16.0028 12.4112 15.2378 13.5585 14.271 14.5229C13.3042 15.4873 12.155 16.2494 10.8904 16.7649C9.62587 17.2804 8.27132 17.5389 6.90582 17.5252C4.92702 17.527 2.98987 16.9569 1.32749 15.8835C1.20867 15.8067 1.11944 15.6918 1.07442 15.5576C1.02939 15.4235 1.03122 15.278 1.07961 15.145C1.128 15.0121 1.22009 14.8994 1.34081 14.8256C1.46153 14.7518 1.60373 14.7211 1.74416 14.7386C2.89238 14.8758 4.05614 14.6905 5.10499 14.2036C4.59326 13.9709 4.1356 13.6343 3.76113 13.215C3.38666 12.7958 3.10361 12.3032 2.92999 11.7685C2.89691 11.6662 2.8908 11.557 2.91226 11.4516C2.93372 11.3462 2.98202 11.2482 3.05249 11.1669L3.06082 11.1585C2.63781 10.7817 2.29879 10.32 2.06578 9.80364C1.83277 9.28723 1.71098 8.72759 1.70832 8.16105V8.11772C1.70826 7.98051 1.75335 7.8471 1.83663 7.73806C1.91992 7.62902 2.03677 7.55042 2.16916 7.51438C1.88697 6.95133 1.74056 6.33002 1.74166 5.70022C1.74118 4.98619 1.92795 4.28452 2.28332 3.66522C2.33381 3.5773 2.40493 3.50299 2.49054 3.44869C2.57615 3.39439 2.67369 3.36173 2.77474 3.35352C2.87579 3.34532 2.97731 3.36183 3.07056 3.40161C3.16381 3.44139 3.24598 3.50326 3.30999 3.58188C4.76765 5.37766 6.85597 6.5491 9.14832 6.85688C9.12842 6.10704 9.31758 5.36645 9.69464 4.718C10.0717 4.06954 10.6218 3.53882 11.2833 3.18522C11.6183 3.00688 12.0617 2.86438 12.5183 2.78605H12.5175ZM3.11915 9.07605C3.28098 9.53148 3.55827 9.9371 3.92389 10.2532C4.28952 10.5693 4.73095 10.7851 5.20499 10.8794C5.34156 10.9066 5.46514 10.9786 5.5561 11.0841C5.64707 11.1895 5.70022 11.3223 5.70711 11.4614C5.714 11.6005 5.67424 11.7379 5.59415 11.8518C5.51405 11.9657 5.3982 12.0496 5.26499 12.0902C5.03832 12.1594 4.80582 12.2069 4.56999 12.2344C4.82603 12.5647 5.15279 12.8334 5.52628 13.0209C5.89977 13.2083 6.3105 13.3098 6.72832 13.3177C6.8572 13.3201 6.98218 13.3624 7.08613 13.4386C7.19008 13.5148 7.26792 13.6213 7.30898 13.7435C7.35004 13.8657 7.35232 13.9976 7.31551 14.1211C7.27869 14.2446 7.20458 14.3538 7.10332 14.4335C6.23436 15.1173 5.22455 15.5997 4.14665 15.846C5.03904 16.1317 5.9705 16.2765 6.90749 16.2752H6.91499C8.115 16.2879 9.3055 16.0613 10.4169 15.6086C11.5284 15.1559 12.5384 14.4863 13.3881 13.6389C14.2379 12.7914 14.9102 11.7831 15.3658 10.6729C15.8214 9.56265 16.0511 8.37276 16.0417 7.17272V6.72688C16.0415 6.57512 16.0966 6.4285 16.1967 6.31438C16.255 6.24855 16.355 6.09688 16.4967 5.84772C16.63 5.61272 16.7783 5.32938 16.9325 5.03022L16.96 4.97522C16.5247 5.07318 16.0765 5.10047 15.6325 5.05605C15.4824 5.0397 15.3432 4.96954 15.2408 4.85855C14.8217 4.40412 14.2637 4.10164 13.6542 3.99855C13.3467 3.95506 13.0343 3.9621 12.7292 4.01938C12.4317 4.06568 12.1429 4.15642 11.8725 4.28855C11.3272 4.57989 10.8941 5.04398 10.641 5.60804C10.3879 6.1721 10.3292 6.80421 10.4742 7.40522C10.497 7.49972 10.4974 7.59825 10.4755 7.69296C10.4535 7.78766 10.4098 7.87595 10.3477 7.95079C10.2857 8.02563 10.207 8.08495 10.118 8.12406C10.029 8.16316 9.93208 8.18097 9.83499 8.17605C7.27464 8.04654 4.85404 6.96917 3.04416 5.15355C3.00899 5.33392 2.99141 5.51728 2.99165 5.70105V5.70272C2.99072 6.16167 3.10329 6.61374 3.31934 7.01866C3.5354 7.42358 3.84823 7.76879 4.22999 8.02355C4.34209 8.099 4.42672 8.20876 4.4712 8.33636C4.51567 8.46397 4.51758 8.60255 4.47666 8.73134C4.43573 8.86012 4.35417 8.97217 4.24419 9.0507C4.13422 9.12922 4.00175 9.16999 3.86665 9.16688C3.61516 9.15991 3.36488 9.13005 3.11915 9.07605Z" fill="white"/>
</svg>
