<svg width="35" height="35" viewBox="0 0 35 35" fill="none" xmlns="http://www.w3.org/2000/svg">
<path d="M12.227 3.61556L10.9723 3.99356C9.85502 4.33048 8.85728 4.97955 8.09647 5.86437C7.33566 6.74919 6.84344 7.83294 6.67776 8.98806C6.15801 12.6071 7.32001 16.8386 10.1218 21.6913C12.9165 26.5318 15.993 29.6503 19.3793 31.0153C20.4673 31.4538 21.6583 31.5707 22.8108 31.3519C23.9633 31.1332 25.0288 30.5882 25.8805 29.7816L26.829 28.8821C27.4449 28.2991 27.8282 27.5124 27.9077 26.6682C27.9873 25.8239 27.7575 24.9794 27.2613 24.2918L24.8883 21.0018C24.5674 20.5576 24.1157 20.225 23.5963 20.0505C23.0769 19.876 22.5159 19.8684 21.992 20.0288L18.4028 21.1261L18.31 21.1436C17.9145 21.2013 17.001 20.3456 15.8635 18.3751C14.6735 16.3136 14.4285 15.1078 14.7558 14.7963L16.581 13.0936C17.2485 12.4714 17.7044 11.6558 17.8849 10.7614C18.0654 9.86689 17.9613 8.93837 17.5873 8.10606L16.4288 5.53181C16.0804 4.75716 15.4622 4.13562 14.6895 3.78305C13.9167 3.43049 13.0404 3.37096 12.227 3.61556ZM14.8345 6.24931L15.9895 8.82355C16.2144 9.32271 16.2773 9.8798 16.1694 10.4165C16.0614 10.9533 15.788 11.4427 15.3875 11.8161L13.557 13.5206C12.3863 14.6301 12.7748 16.5236 14.3498 19.2501C15.8303 21.8156 17.1813 23.0826 18.6338 22.8621L18.8508 22.8166L22.5048 21.7018C22.6794 21.6482 22.8665 21.6505 23.0397 21.7086C23.213 21.7666 23.3637 21.8775 23.4708 22.0256L25.8438 25.3156C26.0922 25.6593 26.2074 26.0817 26.1678 26.504C26.1282 26.9264 25.9366 27.3199 25.6285 27.6116L24.6783 28.5111C24.0699 29.0868 23.309 29.4759 22.4859 29.6319C21.6629 29.788 20.8124 29.7044 20.0355 29.3913C17.064 28.1943 14.2553 25.3471 11.639 20.8163C9.01576 16.2751 7.95351 12.4128 8.41026 9.23656C8.52849 8.41131 8.88005 7.63702 9.42354 7.00486C9.96703 6.3727 10.6798 5.90898 11.478 5.66831L12.7328 5.29031C13.1396 5.16807 13.5769 5.19796 13.9633 5.37441C14.3497 5.55086 14.6587 5.86182 14.8328 6.24931H14.8345Z" fill="#1A2B56"/>
</svg>
