<svg width="18" height="18" viewBox="0 0 18 18" fill="none" xmlns="http://www.w3.org/2000/svg">
<path d="M5.50002 0.666672H12.5C15.1667 0.666672 17.3334 2.83334 17.3334 5.50001V12.5C17.3334 13.7819 16.8241 15.0113 15.9177 15.9177C15.0113 16.8241 13.7819 17.3333 12.5 17.3333H5.50002C2.83335 17.3333 0.666687 15.1667 0.666687 12.5V5.50001C0.666687 4.21813 1.17591 2.98875 2.08234 2.08232C2.98876 1.1759 4.21814 0.666672 5.50002 0.666672ZM5.33335 2.33334C4.5377 2.33334 3.77464 2.64941 3.21203 3.21202C2.64942 3.77463 2.33335 4.53769 2.33335 5.33334V12.6667C2.33335 14.325 3.67502 15.6667 5.33335 15.6667H12.6667C13.4623 15.6667 14.2254 15.3506 14.788 14.788C15.3506 14.2254 15.6667 13.4623 15.6667 12.6667V5.33334C15.6667 3.67501 14.325 2.33334 12.6667 2.33334H5.33335ZM13.375 3.58334C13.6513 3.58334 13.9162 3.69309 14.1116 3.88844C14.3069 4.08379 14.4167 4.34874 14.4167 4.62501C14.4167 4.90127 14.3069 5.16622 14.1116 5.36157C13.9162 5.55693 13.6513 5.66667 13.375 5.66667C13.0988 5.66667 12.8338 5.55693 12.6385 5.36157C12.4431 5.16622 12.3334 4.90127 12.3334 4.62501C12.3334 4.34874 12.4431 4.08379 12.6385 3.88844C12.8338 3.69309 13.0988 3.58334 13.375 3.58334ZM9.00002 4.83334C10.1051 4.83334 11.1649 5.27233 11.9463 6.05373C12.7277 6.83513 13.1667 7.89494 13.1667 9.00001C13.1667 10.1051 12.7277 11.1649 11.9463 11.9463C11.1649 12.7277 10.1051 13.1667 9.00002 13.1667C7.89495 13.1667 6.83514 12.7277 6.05374 11.9463C5.27234 11.1649 4.83335 10.1051 4.83335 9.00001C4.83335 7.89494 5.27234 6.83513 6.05374 6.05373C6.83514 5.27233 7.89495 4.83334 9.00002 4.83334ZM9.00002 6.50001C8.33698 6.50001 7.70109 6.7634 7.23225 7.23224C6.76341 7.70108 6.50002 8.33696 6.50002 9.00001C6.50002 9.66305 6.76341 10.2989 7.23225 10.7678C7.70109 11.2366 8.33698 11.5 9.00002 11.5C9.66306 11.5 10.2989 11.2366 10.7678 10.7678C11.2366 10.2989 11.5 9.66305 11.5 9.00001C11.5 8.33696 11.2366 7.70108 10.7678 7.23224C10.2989 6.7634 9.66306 6.50001 9.00002 6.50001Z" fill="white"/>
</svg>
