<svg width="18" height="16" viewBox="0 0 18 16" fill="none" xmlns="http://www.w3.org/2000/svg">
<path fill-rule="evenodd" clip-rule="evenodd" d="M11.5175 0.785836C11.9417 0.713336 12.4159 0.68917 12.8625 0.765003C13.6582 0.899394 14.3954 1.26886 14.9792 1.82584C15.3592 1.83417 15.7334 1.75917 16.0642 1.6525C16.384 1.54823 16.6909 1.40817 16.9792 1.235L16.9867 1.23C17.1067 1.15005 17.2507 1.11405 17.3942 1.1281C17.5377 1.14216 17.6719 1.20541 17.7741 1.30712C17.8763 1.40884 17.9402 1.54277 17.955 1.68621C17.9697 1.82966 17.9344 1.97378 17.855 2.09417C17.6825 2.35667 17.4417 2.825 17.1725 3.35L17.0434 3.60084C16.8892 3.90084 16.7309 4.20417 16.5834 4.46417C16.4909 4.6275 16.3917 4.79334 16.2917 4.93667V5.165C16.302 6.53054 16.0401 7.88443 15.5215 9.14769C15.0029 10.4109 14.2378 11.5582 13.271 12.5226C12.3042 13.487 11.155 14.2492 9.89047 14.7647C8.62593 15.2802 7.27138 15.5387 5.90588 15.525C3.92709 15.5268 1.98993 14.9567 0.32755 13.8833C0.208728 13.8065 0.119506 13.6916 0.0744771 13.5574C0.0294486 13.4233 0.0312799 13.2778 0.0796713 13.1448C0.128063 13.0118 0.220149 12.8992 0.340868 12.8254C0.461586 12.7515 0.60379 12.7209 0.744216 12.7383C1.89244 12.8756 3.0562 12.6903 4.10505 12.2033C3.59333 11.9707 3.13566 11.6341 2.76119 11.2148C2.38672 10.7956 2.10367 10.303 1.93005 9.76834C1.89697 9.66598 1.89086 9.55683 1.91232 9.45142C1.93378 9.34602 1.98208 9.24794 2.05255 9.16667L2.06088 9.15834C1.63787 8.78146 1.29885 8.31984 1.06584 7.80343C0.832835 7.28702 0.711045 6.72737 0.708383 6.16084V6.1175C0.708322 5.9803 0.753411 5.84688 0.836695 5.73785C0.919979 5.62881 1.03683 5.55021 1.16922 5.51417C0.887029 4.95112 0.74062 4.32981 0.741716 3.7C0.741243 2.98598 0.928009 2.28431 1.28338 1.665C1.33387 1.57709 1.40499 1.50278 1.4906 1.44847C1.57621 1.39417 1.67375 1.36151 1.7748 1.35331C1.87585 1.34511 1.97737 1.36161 2.07062 1.4014C2.16387 1.44118 2.24604 1.50305 2.31005 1.58167C3.76771 3.37745 5.85603 4.54889 8.14838 4.85667C8.12848 4.10682 8.31764 3.36623 8.6947 2.71778C9.07176 2.06933 9.62185 1.5386 10.2834 1.185C10.6184 1.00667 11.0617 0.864169 11.5184 0.785836H11.5175ZM2.11922 7.07584C2.28104 7.53127 2.55833 7.93688 2.92396 8.25299C3.28958 8.5691 3.73101 8.78486 4.20505 8.87917C4.34162 8.90638 4.4652 8.97842 4.55616 9.08386C4.64713 9.1893 4.70028 9.3221 4.70717 9.46119C4.71406 9.60028 4.6743 9.73768 4.59421 9.8516C4.51411 9.96552 4.39826 10.0494 4.26505 10.09C4.03838 10.1592 3.80588 10.2067 3.57005 10.2342C3.82609 10.5644 4.15285 10.8332 4.52634 11.0206C4.89983 11.2081 5.31056 11.3095 5.72838 11.3175C5.85726 11.3199 5.98224 11.3622 6.08619 11.4384C6.19014 11.5146 6.26798 11.6211 6.30904 11.7433C6.3501 11.8655 6.35238 11.9974 6.31557 12.1209C6.27875 12.2444 6.20464 12.3536 6.10338 12.4333C5.23442 13.117 4.22461 13.5995 3.14672 13.8458C4.0391 14.1315 4.97056 14.2763 5.90755 14.275H5.91505C7.11506 14.2877 8.30556 14.061 9.41699 13.6084C10.5284 13.1557 11.5385 12.4861 12.3882 11.6387C13.2379 10.7912 13.9102 9.7829 14.3658 8.67267C14.8214 7.56244 15.0512 6.37254 15.0417 5.1725V4.72667C15.0416 4.57491 15.0967 4.42829 15.1967 4.31417C15.255 4.24834 15.355 4.09667 15.4967 3.8475C15.63 3.6125 15.7784 3.32917 15.9325 3.03L15.96 2.975C15.5247 3.07296 15.0765 3.10026 14.6325 3.05584C14.4824 3.03948 14.3433 2.96933 14.2409 2.85834C13.8218 2.4039 13.2637 2.10142 12.6542 1.99834C12.3468 1.95485 12.0344 1.96189 11.7292 2.01917C11.4318 2.06547 11.143 2.1562 10.8725 2.28834C10.3273 2.57967 9.89412 3.04377 9.64104 3.60783C9.38797 4.17189 9.32929 4.804 9.47422 5.405C9.49702 5.49951 9.49747 5.59803 9.47552 5.69274C9.45357 5.78745 9.40983 5.87573 9.34778 5.95057C9.28572 6.02541 9.20706 6.08474 9.11806 6.12385C9.02905 6.16295 8.93214 6.18075 8.83505 6.17584C6.2747 6.04633 3.8541 4.96896 2.04422 3.15334C2.00905 3.33371 1.99147 3.51707 1.99172 3.70084V3.7025C1.99078 4.16146 2.10335 4.61352 2.31941 5.01844C2.53546 5.42337 2.84829 5.76858 3.23005 6.02334C3.34215 6.09879 3.42679 6.20854 3.47126 6.33615C3.51573 6.46375 3.51765 6.60234 3.47672 6.73112C3.43579 6.85991 3.35423 6.97196 3.24425 7.05048C3.13428 7.12901 3.00181 7.16977 2.86672 7.16667C2.61522 7.1597 2.36494 7.12984 2.11922 7.07584Z" fill="white"/>
</svg>
